<?xml version="1.0" ?><svg viewBox="0 0 32 32" xmlns="http://www.w3.org/2000/svg"><defs><style>.a{fill:none;stroke:#ab2e2f;stroke-linecap:round;stroke-linejoin:round;}</style></defs><path class="a" d="M21.67868,29.48694c-.13053-2.17206.30346-8.12181-.25135-10.17959,5.40464-.30454,7.91814-7.88326,4.37425-12.20148.40424-1.44213.54577-3.51089-.68974-4.562-1.70867-.16794-2.6092.35348-4.679,1.52117a16.1315,16.1315,0,0,0-7.52123,0c-2.07-1.16754-2.97068-1.68925-4.67891-1.52117C6.99691,3.5964,7.139,5.66233,7.54313,7.106a6.255,6.255,0,0,0-1.59872,4.21509H5.94423V11.323h.00009C5.92573,16.111,7.89654,18.60781,11.93632,19.3a5.71312,5.71312,0,0,0-.27012,2.46269h-.00035v7.72423"/><path class="a" d="M11.6076,25.512c-4.0701,1.368-3.71718-3.87151-7.05424-4.324"/></svg>