<?xml version="1.0" ?><svg viewBox="0 0 32 32" xmlns="http://www.w3.org/2000/svg"><defs><style>.a{fill:none;stroke:#ab2e2f;stroke-linecap:round;stroke-linejoin:round;}</style></defs><path class="a" d="M29.24468,7.92074a11.17885,11.17885,0,0,1-3.17872.79469A5.73045,5.73045,0,0,0,28.45,5.8016a10.92328,10.92328,0,0,1-3.44362,1.32446,4.99947,4.99947,0,0,0-3.84095-1.7218,5.34314,5.34314,0,0,0-5.43032,5.29787,3.667,3.667,0,0,0,.13244,1.192A14.49122,14.49122,0,0,1,5.00691,6.46383a4.20306,4.20306,0,0,0-.79468,2.64894A5.52624,5.52624,0,0,0,6.59628,13.616a7.234,7.234,0,0,1-2.38405-.79468v.13244a4.93577,4.93577,0,0,0,4.10585,5.16543,4.966,4.966,0,0,1-1.45691.13245,2.91619,2.91619,0,0,1-1.05957-.13245,5.28714,5.28714,0,0,0,5.033,3.70851,10.913,10.913,0,0,1-6.75478,2.2516,4.50566,4.50566,0,0,1-1.32447-.13245A15.8109,15.8109,0,0,0,12.159,26.59574c9.93351,0,14.4367-8.2117,14.4367-15.23138v-.66223A10.53921,10.53921,0,0,0,29.24468,7.92074Z"/></svg>