<?xml version="1.0" ?><svg viewBox="0 0 32 32" xmlns="http://www.w3.org/2000/svg"><defs><style>.a{fill:none;stroke:#ab2e2f;stroke-linecap:round;stroke-linejoin:round;}</style></defs><path class="a" d="M17.35167,2.64833A12.64906,12.64906,0,0,0,9.92118,25.5414l.40851,3.81756,3.225-1.973a12.66011,12.66011,0,1,0,3.797-24.73767Z"/><path class="a" d="M14.20934,10.16613l1.65122,1.65122a1.13836,1.13836,0,0,1-.00035,1.61024v0a1.13835,1.13835,0,0,0-.00036,1.61024l2.45226,2.45226a1.13836,1.13836,0,0,0,1.60989,0l.00071-.00071a1.13836,1.13836,0,0,1,1.60989,0l1.65655,1.65655a1.13836,1.13836,0,0,1,0,1.60989l-.58364.58364a1.15151,1.15151,0,0,1-.55627.308l0,0A8.62786,8.62786,0,0,1,11.7078,11.30606l0,0a1.15151,1.15151,0,0,1,.308-.55627l.58364-.58364A1.13836,1.13836,0,0,1,14.20934,10.16613Z"/></svg>